<svg version="1.2" baseProfile="tiny-ps" xmlns="http://www.w3.org/2000/svg" viewBox="0 0 1734 393"><style>.shp0{fill:#9bc12b}.shp1{fill:#bed630}.shp2{fill:#fff}</style><g id="Vending.com header-logo Image"><g id="&lt;Group>"><path id="&lt;Compound Path>" class="shp0" d="M808.69 370.06c-.32 2.07-.19 3.75.39 5.04 1.13 2.42 3.76 3.63 7.9 3.63 1.85.0 3.6-.27 5.24-.8 3.16-1.03 5.02-2.86 5.59-5.51.43-1.99.1-3.41-.97-4.25-1.08-.82-2.89-1.55-5.44-2.16l-4.72-1.12c-3.06-.72-5.17-1.53-6.33-2.41-1.99-1.52-2.66-3.8-2.02-6.82.7-3.28 2.41-5.97 5.12-8.08 2.72-2.1 6.15-3.15 10.31-3.15 3.82.0 6.87.92 9.15 2.77 2.28 1.84 2.98 4.8 2.13 8.85h-4.65c.16-1.95-.04-3.45-.62-4.49-1.11-1.91-3.47-2.86-7.08-2.86-2.92.0-5.14.61-6.67 1.84-1.53 1.22-2.47 2.65-2.82 4.27-.38 1.79.09 3.1 1.39 3.92.87.53 2.94 1.2 6.21 1.99l4.87 1.17c2.35.56 4.09 1.33 5.21 2.31 1.98 1.7 2.61 4.18 1.92 7.42-.86 4.04-2.95 6.93-6.26 8.67s-6.91 2.61-10.8 2.61c-4.54.0-7.84-1.16-9.91-3.48-2.07-2.3-2.67-5.42-1.79-9.36h4.65z"/><path fill-rule="evenodd" class="shp0" d="M861.66 359.41c.61 1.34.87 2.9.79 4.69.02 1.22-.26 3.18-.84 5.86h-19.5c-.5 2.7-.32 4.86.53 6.49.86 1.63 2.53 2.45 5.04 2.45 2.33.0 4.35-.77 6.05-2.31 1-.89 1.79-1.93 2.37-3.1h4.39c-.33.97-.95 2.06-1.85 3.26-.91 1.2-1.84 2.18-2.82 2.94-1.64 1.33-3.51 2.22-5.61 2.69-1.14.26-2.4.39-3.75.39-3.31.0-5.86-1.2-7.65-3.61s-2.22-5.78-1.29-10.12c.91-4.27 2.8-7.74 5.68-10.41 2.89-2.66 6.2-3.99 9.94-3.99 1.89.0 3.62.44 5.21 1.32 1.59.89 2.69 2.04 3.31 3.45zm-3.9 7c.23-1.94.14-3.49-.28-4.65-.76-2.15-2.57-3.23-5.44-3.23-2.05.0-3.93.75-5.63 2.23-1.71 1.48-2.85 3.36-3.43 5.65h14.78z"/><path class="shp0" d="M870.35 355.23h4.24l-.96 4.6c.53-.9 1.61-1.98 3.24-3.27 1.62-1.28 3.33-1.92 5.1-1.92.09.0.22.01.42.02.2.02.53.05.99.1l-.99 4.72c-.27-.05-.5-.08-.72-.1-.21-.02-.46-.02-.71-.02-2.26.0-4.14.72-5.66 2.17-1.51 1.45-2.48 3.12-2.89 5l-3.23 15.3h-4.47l5.64-26.6zm19 0 2.5 21.66 12.03-21.66h4.89l-15.67 26.6h-4.77l-4.17-26.6h5.19zM912.57 355.36h4.54l-5.61 26.47h-4.54l5.61-26.47zm2.14-10.01h4.54l-1.1 5.07h-4.54l1.1-5.07zM923.89 355.23h4.25l-.79 3.78c1.58-1.56 3.15-2.67 4.7-3.35 1.55-.68 3.18-1.02 4.9-1.02 3.78.0 6.05 1.31 6.81 3.94.43 1.44.37 3.51-.2 6.19l-3.62 17.06h-4.55l3.56-16.76c.34-1.63.38-2.94.11-3.93-.44-1.65-1.71-2.48-3.79-2.48-1.06.0-1.96.11-2.68.32-1.31.37-2.55 1.09-3.71 2.19-.92.88-1.6 1.78-2.02 2.72-.42.93-.81 2.27-1.18 4.01l-2.95 13.93h-4.48l5.64-26.6z"/><path fill-rule="evenodd" class="shp0" d="M966.81 356.3c.72.58 1.41 1.42 2.03 2.53l.72-3.35h4.12l-5.14 24.19c-.71 3.38-1.77 6.04-3.18 8-2.63 3.61-6.51 5.41-11.67 5.41-2.86.0-5.13-.64-6.82-1.93-1.67-1.28-2.34-3.28-1.99-6.02h4.55c-.04 1.19.2 2.12.71 2.76.8.99 2.28 1.49 4.45 1.49 3.42.0 5.92-1.21 7.49-3.62.94-1.43 1.76-3.97 2.49-7.63-1.18 1.36-2.46 2.37-3.86 3.03-1.4.66-3.13.99-5.2.99-2.89.0-5.19-1.02-6.92-3.07-1.73-2.04-2.09-5.42-1.08-10.14.94-4.45 2.77-7.93 5.48-10.43 2.7-2.5 5.6-3.75 8.68-3.75 2.08.0 3.79.52 5.14 1.54zm-5.17 2.41c-3.14.0-5.61 1.47-7.38 4.42-.95 1.57-1.7 3.64-2.23 6.18-.64 3-.53 5.28.36 6.85.88 1.56 2.35 2.34 4.41 2.34 3.21.0 5.78-1.45 7.69-4.34 1.08-1.64 1.85-3.56 2.32-5.74.7-3.29.55-5.74-.48-7.33s-2.59-2.38-4.69-2.38z"/><path class="shp0" d="m1022.96 345.35-.92 4.34h-12.3l-6.82 32.14h-5.03l6.84-32.14h-12.29l.92-4.34h29.6zM1026.91 345.23h4.47l-2.91 13.6c1.36-1.34 2.52-2.28 3.48-2.83 1.64-.94 3.53-1.41 5.69-1.41 3.85.0 6.18 1.34 6.97 4.04.44 1.48.38 3.52-.17 6.14l-3.62 17.06h-4.6l3.55-16.76c.41-1.96.47-3.39.17-4.3-.51-1.46-1.89-2.19-4.12-2.19-1.85.0-3.67.64-5.43 1.92-1.78 1.27-3.05 3.68-3.81 7.22l-2.98 14.11h-4.47l7.78-36.6z"/><path fill-rule="evenodd" class="shp0" d="M1072.77 359.41c.62 1.34.88 2.9.8 4.69.01 1.22-.26 3.18-.85 5.86h-19.49c-.5 2.7-.32 4.86.54 6.49.85 1.63 2.52 2.45 5.03 2.45 2.32.0 4.34-.77 6.05-2.31 1-.89 1.78-1.93 2.37-3.1h4.38c-.32.97-.94 2.06-1.84 3.26-.91 1.2-1.84 2.18-2.82 2.94-1.64 1.33-3.51 2.22-5.62 2.69-1.14.26-2.39.39-3.74.39-3.31.0-5.87-1.2-7.65-3.61-1.79-2.41-2.22-5.78-1.3-10.12.91-4.27 2.82-7.74 5.69-10.41 2.88-2.66 6.2-3.99 9.93-3.99 1.9.0 3.63.44 5.22 1.32 1.59.89 2.69 2.04 3.3 3.45zm-3.89 7c.23-1.94.14-3.49-.28-4.65-.76-2.15-2.57-3.23-5.44-3.23-2.05.0-3.93.75-5.63 2.23-1.71 1.48-2.86 3.36-3.43 5.65h14.78z"/><path class="shp0" d="m1101.06 345.35 3.88 31.06 16.96-31.06h5.53l-21.06 36.48h-5.24l-5.53-36.48h5.46z"/><path fill-rule="evenodd" class="shp0" d="M1146.33 359.41c.62 1.34.89 2.9.8 4.69.02 1.22-.26 3.18-.85 5.86h-19.49c-.5 2.7-.32 4.86.53 6.49.86 1.63 2.53 2.45 5.04 2.45 2.32.0 4.35-.77 6.05-2.31 1-.89 1.78-1.93 2.36-3.1h4.39c-.32.97-.94 2.06-1.84 3.26-.9 1.2-1.84 2.18-2.82 2.94-1.64 1.33-3.51 2.22-5.62 2.69-1.14.26-2.38.39-3.74.39-3.31.0-5.87-1.2-7.65-3.61-1.79-2.41-2.22-5.78-1.3-10.12.91-4.27 2.82-7.74 5.69-10.41 2.88-2.66 6.19-3.99 9.93-3.99 1.9.0 3.63.44 5.23 1.32 1.58.89 2.68 2.04 3.29 3.45zm-3.89 7c.23-1.94.14-3.49-.28-4.65-.76-2.15-2.57-3.23-5.43-3.23-2.06.0-3.94.75-5.64 2.23-1.71 1.48-2.85 3.36-3.43 5.65h14.78z"/><path class="shp0" d="M1154.9 355.23h4.25l-.79 3.78c1.58-1.56 3.15-2.67 4.7-3.35 1.54-.68 3.18-1.02 4.91-1.02 3.77.0 6.04 1.31 6.8 3.94.43 1.44.36 3.51-.19 6.19l-3.63 17.06h-4.55l3.55-16.76c.35-1.63.4-2.94.13-3.93-.45-1.65-1.72-2.48-3.81-2.48-1.06.0-1.95.11-2.67.32-1.31.37-2.55 1.09-3.71 2.19-.93.88-1.59 1.78-2.02 2.72-.42.93-.82 2.27-1.17 4.01l-2.97 13.93h-4.46l5.63-26.6z"/><path fill-rule="evenodd" class="shp0" d="M1197.7 356.05c.69.5 1.41 1.37 2.16 2.61l2.85-13.43h4.3l-7.78 36.6h-4.02l.77-3.7c-1.39 1.64-2.88 2.82-4.46 3.55s-3.29 1.09-5.13 1.09c-2.96.0-5.26-1.24-6.9-3.74-1.64-2.49-2.01-5.8-1.12-9.94.81-3.87 2.51-7.23 5.09-10.07 2.59-2.84 5.72-4.26 9.39-4.26 2.03.0 3.65.43 4.85 1.29zm-9.07 22.83c2.07.0 3.95-.9 5.66-2.67 1.7-1.79 2.91-4.34 3.62-7.67.72-3.36.56-5.85-.46-7.46-1.03-1.61-2.56-2.42-4.58-2.42-2.25.0-4.25.86-6.02 2.58-1.76 1.72-3 4.26-3.71 7.6-.61 2.85-.52 5.23.29 7.15.8 1.93 2.54 2.89 5.2 2.89z"/><path class="shp0" d="M1211.45 355.36h4.54l-5.61 26.47h-4.54l5.61-26.47zm2.13-10.01h4.55l-1.09 5.07h-4.55l1.09-5.07zM1222.78 355.23h4.25l-.81 3.78c1.6-1.56 3.17-2.67 4.71-3.35a12.1 12.1.0 014.91-1.02c3.78.0 6.05 1.31 6.81 3.94.42 1.44.35 3.51-.21 6.19l-3.62 17.06h-4.54l3.54-16.76c.35-1.63.39-2.94.13-3.93-.44-1.65-1.71-2.48-3.8-2.48-1.06.0-1.95.11-2.69.32-1.3.37-2.53 1.09-3.69 2.19-.93.88-1.6 1.78-2.03 2.72-.42.93-.81 2.27-1.18 4.01l-2.95 13.93h-4.47l5.64-26.6z"/><path fill-rule="evenodd" class="shp0" d="M1265.69 356.3c.73.58 1.41 1.42 2.04 2.53l.71-3.35h4.13l-5.14 24.19c-.71 3.38-1.77 6.04-3.18 8-2.63 3.61-6.53 5.41-11.68 5.41-2.86.0-5.13-.64-6.81-1.93-1.68-1.28-2.35-3.28-2-6.02h4.54c-.03 1.19.21 2.12.73 2.76.79.99 2.28 1.49 4.45 1.49 3.42.0 5.92-1.21 7.49-3.62.92-1.43 1.76-3.97 2.48-7.63-1.17 1.36-2.46 2.37-3.86 3.03-1.39.66-3.13.99-5.2.99-2.88.0-5.19-1.02-6.91-3.07-1.74-2.04-2.1-5.42-1.09-10.14.94-4.45 2.77-7.93 5.48-10.43s5.6-3.75 8.68-3.75c2.09.0 3.8.52 5.14 1.54zm-5.16 2.41c-3.15.0-5.61 1.47-7.38 4.42-.96 1.57-1.71 3.64-2.24 6.18-.64 3-.52 5.28.36 6.85.89 1.56 2.36 2.34 4.41 2.34 3.21.0 5.78-1.45 7.7-4.34 1.08-1.64 1.84-3.56 2.31-5.74.71-3.29.55-5.74-.47-7.33-1.03-1.59-2.59-2.38-4.69-2.38z"/><path class="shp0" d="M1297.31 345.35h4.99l-7.76 36.48h-4.99l7.76-36.48zm10.3 9.88h4.25l-.8 3.78c1.59-1.56 3.16-2.67 4.71-3.35 1.54-.68 3.18-1.02 4.91-1.02 3.77.0 6.04 1.31 6.8 3.94.43 1.44.36 3.51-.2 6.19l-3.62 17.06h-4.55l3.55-16.76c.34-1.63.39-2.94.13-3.93-.45-1.65-1.72-2.48-3.81-2.48-1.06.0-1.95.11-2.68.32-1.31.37-2.54 1.09-3.7 2.19-.93.88-1.6 1.78-2.02 2.72-.42.93-.82 2.27-1.18 4.01l-2.96 13.93h-4.47l5.64-26.6z"/><path fill-rule="evenodd" class="shp0" d="M1350.4 356.05c.7.5 1.42 1.37 2.16 2.61l2.86-13.43h4.3l-7.78 36.6h-4.02l.77-3.7c-1.4 1.64-2.88 2.82-4.46 3.55s-3.29 1.09-5.13 1.09c-2.96.0-5.26-1.24-6.9-3.74-1.64-2.49-2.01-5.8-1.12-9.94.81-3.87 2.5-7.23 5.09-10.07 2.58-2.84 5.71-4.26 9.39-4.26 2.03.0 3.65.43 4.84 1.29zm-9.06 22.83c2.07.0 3.95-.9 5.66-2.67 1.7-1.79 2.91-4.34 3.62-7.67.71-3.36.56-5.85-.46-7.46-1.03-1.61-2.56-2.42-4.58-2.42-2.25.0-4.26.86-6.02 2.58-1.76 1.72-3 4.26-3.71 7.6-.61 2.85-.52 5.23.28 7.15.81 1.93 2.54 2.89 5.21 2.89z"/><path class="shp0" d="m1368.65 355.23-3.74 17.66c-.29 1.36-.3 2.47-.05 3.33.44 1.59 1.75 2.38 3.92 2.38 3.11.0 5.53-1.39 7.25-4.17.93-1.49 1.66-3.53 2.21-6.13l2.78-13.07h4.47l-5.64 26.6h-4.22l.88-3.93c-.81 1.02-1.71 1.87-2.72 2.57-2 1.39-4.22 2.08-6.65 2.08-3.79.0-6.1-1.27-6.93-3.8-.47-1.36-.46-3.17.02-5.44l3.85-18.08h4.57zM1391.26 373.49c-.19 1.49-.05 2.63.39 3.42.81 1.44 2.61 2.16 5.39 2.16 1.65.0 3.19-.36 4.61-1.08 1.41-.72 2.27-1.83 2.59-3.34.25-1.14-.07-2.01-.97-2.6-.56-.37-1.74-.79-3.55-1.27l-3.35-.89c-2.15-.57-3.69-1.2-4.62-1.89-1.67-1.21-2.28-2.88-1.81-5.02.52-2.51 1.86-4.55 4-6.11 2.15-1.56 4.75-2.33 7.82-2.33 4.01.0 6.64 1.17 7.92 3.52.79 1.49.99 3.1.59 4.82h-4.22c.13-1.01-.03-1.93-.49-2.76-.78-1.17-2.44-1.76-4.97-1.76-1.69.0-3.03.32-4.03.97-1.01.65-1.62 1.5-1.86 2.56-.25 1.16.13 2.08 1.12 2.78.59.41 1.49.78 2.71 1.09l2.81.72c3.04.78 5.04 1.53 5.98 2.26 1.49 1.15 1.97 2.94 1.44 5.39-.5 2.37-1.82 4.41-3.99 6.14-2.16 1.72-5.07 2.58-8.75 2.58-3.95.0-6.56-.9-7.83-2.7-1.27-1.79-1.68-4.01-1.23-6.66h4.3zM1420.39 347.81h4.52l-1.6 7.42h4.25l-.77 3.65h-4.24l-3.71 17.36c-.2.93-.01 1.55.55 1.86.31.19.88.28 1.69.28.22.0.45.0.7-.01.24-.01.54-.03.89-.07l-.75 3.53c-.54.15-1.1.25-1.68.32-.56.07-1.17.1-1.81.1-2.09.0-3.4-.53-3.92-1.6s-.6-2.45-.23-4.16l3.74-17.61h-3.59l.77-3.65h3.59l1.6-7.42zM1432.16 355.23h4.25l-.97 4.6c.52-.9 1.6-1.98 3.24-3.27 1.62-1.28 3.32-1.92 5.1-1.92.09.0.22.01.42.02.2.02.53.05.99.1l-.99 4.72c-.27-.05-.5-.08-.72-.1-.22-.02-.46-.02-.72-.02-2.25.0-4.13.72-5.65 2.17-1.51 1.45-2.48 3.12-2.89 5l-3.23 15.3h-4.47l5.64-26.6zM1465.58 355.23h4.94c-.99 1.71-3.22 5.6-6.67 11.67-2.59 4.58-4.73 8.3-6.43 11.18-4.05 6.79-6.75 10.93-8.13 12.42-1.37 1.49-3.35 2.23-5.93 2.23-.63.0-1.11-.02-1.45-.07-.32-.05-.72-.14-1.18-.27l.87-4.08c.72.22 1.26.35 1.6.4.33.05.64.07.9.07.83.0 1.47-.13 1.91-.4.45-.28.85-.61 1.19-1.01.12-.13.56-.81 1.34-2.04.77-1.22 1.33-2.14 1.69-2.73l-4.02-27.37h5.06l2.54 21.66 11.77-21.66zM1489.2 370.06c-.31 2.07-.18 3.75.4 5.04 1.12 2.42 3.75 3.63 7.9 3.63 1.85.0 3.6-.27 5.24-.8 3.16-1.03 5.02-2.86 5.58-5.51.44-1.99.11-3.41-.97-4.25-1.07-.82-2.88-1.55-5.44-2.16l-4.71-1.12c-3.06-.72-5.17-1.53-6.33-2.41-1.99-1.52-2.67-3.8-2.01-6.82.69-3.28 2.39-5.97 5.11-8.08 2.71-2.1 6.15-3.15 10.3-3.15 3.83.0 6.88.92 9.16 2.77 2.28 1.84 2.99 4.8 2.12 8.85h-4.64c.17-1.95-.04-3.45-.63-4.49-1.11-1.91-3.46-2.86-7.07-2.86-2.92.0-5.14.61-6.67 1.84-1.54 1.22-2.47 2.65-2.82 4.27-.38 1.79.08 3.1 1.39 3.92.86.53 2.93 1.2 6.21 1.99l4.87 1.17c2.35.56 4.08 1.33 5.21 2.31 1.97 1.7 2.61 4.18 1.92 7.42-.87 4.04-2.95 6.93-6.27 8.67-3.3 1.74-6.91 2.61-10.79 2.61-4.54.0-7.85-1.16-9.92-3.48-2.07-2.3-2.66-5.42-1.78-9.36h4.64zm33.23-14.7h4.55l-5.62 26.47h-4.54l5.61-26.47zm2.14-10.01h4.54l-1.09 5.07h-4.55l1.1-5.07zM1533.75 355.23h4.25l-.79 3.78c1.58-1.56 3.15-2.67 4.7-3.35s3.18-1.02 4.91-1.02c3.77.0 6.04 1.31 6.8 3.94.43 1.44.37 3.51-.2 6.19l-3.62 17.06h-4.55l3.56-16.76c.34-1.63.38-2.94.12-3.93-.45-1.65-1.72-2.48-3.8-2.48-1.06.0-1.96.11-2.68.32-1.31.37-2.55 1.09-3.71 2.19-.92.88-1.6 1.78-2.02 2.72-.42.93-.81 2.27-1.18 4.01l-2.95 13.93h-4.48l5.64-26.6zM1581.11 364.17h-4.34c.08-1.64-.24-3-.95-4.08-.71-1.09-2.11-1.63-4.19-1.63-2.85.0-5.19 1.39-7 4.17-1.18 1.81-2.05 4.04-2.62 6.68-.57 2.67-.49 4.91.25 6.73.75 1.83 2.33 2.74 4.74 2.74 1.86.0 3.45-.57 4.78-1.71 1.32-1.13 2.4-2.68 3.23-4.65h4.34c-1.24 3.52-3.03 6.1-5.36 7.73-2.34 1.63-5.05 2.45-8.15 2.45-3.48.0-5.98-1.27-7.51-3.81s-1.9-5.72-1.08-9.53c.99-4.66 2.9-8.3 5.72-10.9 2.82-2.6 5.99-3.9 9.5-3.9 2.99.0 5.28.73 6.84 2.19 1.57 1.45 2.17 3.96 1.8 7.52z"/><path fill-rule="evenodd" class="shp0" d="M1607.19 359.41c.62 1.34.87 2.9.8 4.69.01 1.22-.27 3.18-.85 5.86h-19.49c-.5 2.7-.32 4.86.53 6.49s2.53 2.45 5.03 2.45c2.33.0 4.35-.77 6.06-2.31.99-.89 1.78-1.93 2.36-3.1h4.39c-.33.97-.94 2.06-1.84 3.26-.91 1.2-1.85 2.18-2.82 2.94-1.65 1.33-3.52 2.22-5.62 2.69-1.14.26-2.39.39-3.75.39-3.31.0-5.86-1.2-7.65-3.61-1.78-2.41-2.22-5.78-1.29-10.12.91-4.27 2.81-7.74 5.69-10.41 2.88-2.66 6.19-3.99 9.93-3.99 1.89.0 3.63.44 5.21 1.32 1.6.89 2.7 2.04 3.31 3.45zm-3.9 7c.24-1.94.14-3.49-.27-4.65-.76-2.15-2.57-3.23-5.44-3.23-2.06.0-3.93.75-5.64 2.23s-2.85 3.36-3.43 5.65h14.78z"/><path class="shp0" d="m1631.18 356.65.72-3.43c3.3-.31 5.66-.84 7.09-1.58 1.43-.73 2.76-2.48 3.98-5.23h3.53l-7.52 35.42h-4.77l5.34-25.18h-8.37z"/><path fill-rule="evenodd" class="shp0" d="M1657.83 373.24c-.4 2.47.19 4.17 1.76 5.11.82.5 1.79.75 2.93.75 2.14.0 4.15-.89 6.04-2.67 1.88-1.78 3.72-5.39 5.51-10.84-1.34 1.57-2.81 2.68-4.41 3.32-1.6.63-3.24.95-4.92.95-3.43.0-5.92-1.07-7.46-3.2-1.54-2.14-1.96-4.89-1.24-8.25.68-3.23 2.26-6.07 4.76-8.52 2.48-2.45 5.65-3.67 9.49-3.67 5.18.0 8.26 2.33 9.24 7 .55 2.57.42 5.78-.39 9.64-.93 4.35-2.41 8.21-4.43 11.57-3.36 5.59-7.63 8.39-12.81 8.39-3.47.0-5.93-.91-7.34-2.73-1.41-1.82-1.83-4.1-1.26-6.85h4.53zm17.06-15.18c.56-2.61.32-4.56-.73-5.85-1.06-1.28-2.6-1.92-4.64-1.92-2.18.0-4.07.73-5.66 2.2-1.59 1.46-2.65 3.42-3.18 5.87-.48 2.32-.3 4.16.53 5.53.85 1.36 2.5 2.05 4.96 2.05 1.77.0 3.51-.59 5.23-1.75 1.71-1.17 2.87-3.21 3.49-6.13z"/><path class="shp0" d="M1681.07 370.9h4.68c-.3 2.3-.23 3.98.21 5.02.77 1.87 2.66 2.81 5.69 2.81 2.36.0 4.38-.63 6.06-1.89 1.69-1.26 2.75-2.88 3.18-4.87.52-2.45.12-4.16-1.17-5.14-1.28-.98-3.27-1.47-5.93-1.47-.3.0-.6.01-.91.02-.3.0-.62.02-.93.03l.85-3.94c.44.05.82.08 1.14.1.31.01.65.02 1.02.02 1.67.0 3.1-.26 4.29-.79 2.07-.93 3.37-2.59 3.88-4.97.38-1.77.04-3.14-1.02-4.1-1.06-.96-2.43-1.44-4.1-1.44-2.98.0-5.25.99-6.81 2.98-.86 1.09-1.54 2.65-2.06 4.67h-4.41c.56-2.65 1.57-4.9 3.03-6.76 2.51-3.31 6.06-4.96 10.65-4.96 3.62.0 6.26.8 7.91 2.42 1.65 1.61 2.15 3.95 1.5 7.02-.48 2.18-1.45 3.95-2.91 5.31a9.97 9.97.0 01-3.25 1.99c1.76.51 3.01 1.5 3.75 2.96.74 1.47.89 3.26.44 5.38-.72 3.4-2.43 6.16-5.12 8.29-2.69 2.14-6.09 3.21-10.2 3.21-4.2.0-7-1.16-8.4-3.46-1.4-2.32-1.75-5.12-1.06-8.44zm34.97-14.25.72-3.43c3.3-.31 5.66-.84 7.09-1.58 1.43-.73 2.76-2.48 3.99-5.23h3.52l-7.52 35.42h-4.77l5.34-25.18h-8.37z"/><path fill-rule="evenodd" class="shp1" d="M201.3 13.99v307.13c0 7.69-6.29 13.99-13.99 13.99h-2.33v15.82c0 1.1-.9 2-2 2h-11.32c-1.1.0-2-.9-2-2v-15.82H34.58v15.82c0 1.1-.9 2-2 2H21.26c-1.1.0-2-.9-2-2v-15.82h-4.5c-7.69.0-13.99-6.3-13.99-13.99V13.99C.77 6.3 7.07.0 14.76.0h172.55c7.7.0 13.99 6.3 13.99 13.99zm-58.79 242.34c0-3.3-2.7-6-6-6H32.25c-3.3.0-6 2.7-6 6v14.49c0 3.3 2.7 5.99 6 5.99h104.26c3.3.0 6-2.69 6-5.99v-14.49zm4.83-233.18c0-3.3-2.7-5.99-6-5.99H22.26c-3.3.0-6 2.69-6 5.99v189.04c0 3.3 2.7 6 6 6h119.08c3.3.0 6-2.7 6-6V23.15zm33.81 232.34c0-3.29-2.7-5.99-6-5.99h-7.32c-3.3.0-6 2.7-6 5.99v8.67c0 3.29 2.7 5.99 6 5.99h7.32c3.3.0 6-2.7 6-5.99v-8.67zm5-232.51c0-3.29-2.7-5.99-6-5.99h-10.49c-3.3.0-6 2.7-6 5.99v188.54c0 3.3 2.7 6 6 6h10.49c3.3.0 6-2.7 6-6V22.98z"/><g><path class="shp2" d="m304.18 280.12-21.67-41.05-23.95-44.45-22.26-40.95c-6.07-11.06-9.73-17.72-10.99-19.98-3.63-6.55-7.88-14.12-12.76-22.71h73.82l48.29 88.57 18.21-37.13c4.09-7.43 7.68-14.34 10.79-20.75 2.9-6.05 5.11-11.21 6.63-15.51l3.26-7.76c1.45-3.64 2.67-6.26 3.66-7.86.73-1.24 2.08-1.86 4.06-1.86h1.58c1.32.44 1.98 1.79 1.98 4.05l-.2 1.31-.19 1.41c-.53 2.04-1.69 5.1-3.47 9.18-1.78 4.08-4.12 8.99-7.02 14.74-5.81 11.43-9.47 18.2-10.99 20.31-18.73 35.96-38.33 76.11-58.78 120.44z"/><path fill-rule="evenodd" class="shp2" d="M434.71 209.38v42.57c0 5.1.82 8.7 2.47 10.78 1.65 2.07 4.75 3.11 9.3 3.11 5.35.0 10.64-1 15.89-3.01a58.323 58.323.0 0014.49-8.05c2.31-1.76 4.47-3.6 6.48-5.53 2.02-1.94 4.04-4.19 6.09-6.74.13-.07.43-.48.89-1.21a54.6 54.6.0 001.78-2.63c1.39-2.19 2.72-3.96 4.01-5.31 1.29-1.35 2.59-2.03 3.91-2.03.85.0 1.78.29 2.77.88 1.12.8 1.68 2.01 1.68 3.61.0 2.63-1.78 5.91-5.34 9.86-7.59 8.39-15.95 15.05-25.09 19.98s-18.59 7.39-28.35 7.39c-4.55.0-9-.44-13.36-1.31-6.73-1.61-13.03-4.55-18.9-8.85-2.97-2.12-5.64-4.37-8.01-6.78-2.38-2.41-4.69-5.14-6.93-8.2-4.16-5.9-7.41-12.48-9.75-19.73s-3.51-14.55-3.51-21.91l.2-3.72.19-3.82c1.13-11.37 4.59-21.61 10.39-30.72 5.81-9.11 13.2-16.27 22.17-21.48 8.97-5.21 18.54-7.81 28.7-7.81h6.93c17.67 2.4 31.43 11.03 41.26 25.88 1.32 2.04 2.56 4.23 3.71 6.56s2.16 4.69 3.02 7.09c1.52 4.52 2.74 9.14 3.66 13.87.73 4.08 1.45 9.83 2.18 17.26h-72.93zm0-7.64h26.72v-43.8c0-4.44-.8-7.61-2.38-9.5-.86-.95-2-1.69-3.41-2.24-1.42-.55-3.12-.82-5.1-.82h-4.45c-7.59.0-11.38 4.19-11.38 12.56v43.8z"/><path class="shp2" d="m525.55 268.9.2-12.12.19-13.43v-75.58l-.19-13.22-.2-11.79h54.33l-.4 8.3v9.06c5.08-4.07 10.13-7.57 15.14-10.48a80.65 80.65.0 0115.59-6.99c5.37-1.75 10.93-2.62 16.67-2.62h4.06c6.53.0 12.27 1.24 17.22 3.71 4.55 2.26 8.27 5.5 11.18 9.72 2.64 3.86 4.43 8.45 5.39 13.76.96 5.32 1.44 11.18 1.44 17.59v58.54l-.2 2.72-.2 2.63.4 10.15.39 10.05h-54.72l.2-12.78v-92.39c0-5.97-2.27-8.96-6.79-8.96-5.25.0-13.84 4.63-25.77 13.87v87.48l.4 12.78h-54.33z"/><path fill-rule="evenodd" class="shp2" d="M826.77 268.9h-54.32l.39-7.75v-7.54c-5.61 5.97-11.25 10.47-16.92 13.49s-11.94 4.53-18.8 4.53h-6.43c-7.39-.95-14.14-3.37-20.24-7.27s-11.25-8.83-15.44-14.77c-4.19-5.95-7.4-12.73-9.65-20.35-2.24-7.62-3.36-15.48-3.36-23.57.0-8.24 1.1-16.19 3.31-23.85s5.38-14.42 9.5-20.29c4.13-5.87 9.26-10.74 15.39-14.61 6.14-3.86 12.97-6.23 20.49-7.11l3.76-.22h3.56c11.61.0 23.22 6.12 34.83 18.35v-36.48l-.39-12.78h54.32c0 4.96-.1 9.34-.29 13.16-.2 3.83-.4 7.96-.6 12.4v109.11c0 .21.2 4.65.6 13.32.19 4.37.29 8.45.29 12.23zm-53.93-25.12v-76.45c-.92-1.31-1.98-2.64-3.17-3.98-1.18-1.35-2.54-2.72-4.05-4.1-2.84-2.69-5.96-5-9.35-6.93-3.4-1.93-6.25-2.9-8.56-2.9-2.18.0-4.01 1.19-5.5 3.55-1.48 2.37-2.22 5.66-2.22 9.89v85.62l-.4 1.2c0 3.13.63 5.84 1.88 8.14 1.25 2.29 3.2 3.44 5.84 3.44h.79c8.12.0 16.36-5.83 24.74-17.48z"/><path class="shp2" d="M851.51 119.06c0-5.24 2.72-9.32 8.17-12.23 5.44-2.91 11.89-4.37 19.34-4.37 7.65.0 14.23 1.44 19.74 4.31 5.51 2.88 8.27 6.98 8.27 12.29.0 3.5-1.31 6.5-3.91 9.01-2.61 2.51-6.1 4.46-10.49 5.84-4.39 1.39-8.92 2.08-13.61 2.08-7.45.0-13.9-1.51-19.34-4.53-5.45-3.03-8.17-7.16-8.17-12.4zm.79 149.84.2-12.78.2-12.77v-75.58l-.2-12.56-.2-12.45h54.33c0 4.08-.08 8.1-.25 12.07-.16 3.97-.34 8.28-.54 12.94v75.58c0 .8.13 4.55.4 11.24.26 6.7.39 11.47.39 14.31H852.3zM930.98 268.9l.19-12.12.2-13.43v-75.58l-.2-13.22-.19-11.79h54.32l-.39 8.3v9.06c5.07-4.07 10.12-7.57 15.14-10.48 5.01-2.91 10.2-5.24 15.58-6.99s10.94-2.62 16.68-2.62h4.05c6.53.0 12.27 1.24 17.22 3.71 4.55 2.26 8.28 5.5 11.18 9.72 2.64 3.86 4.44 8.45 5.4 13.76.95 5.32 1.43 11.18 1.43 17.59v58.54l-.2 2.72-.19 2.63.39 10.15.4 10.05h-54.73l.2-12.78v-92.39c0-5.97-2.26-8.96-6.78-8.96-5.25.0-13.84 4.63-25.77 13.87v87.48l.39 12.78h-54.32z"/><path fill-rule="evenodd" class="shp2" d="M1104.94 219.21c-5.21-4.22-9.22-9.27-12.02-15.13-2.81-5.86-4.21-11.85-4.21-17.96.0-6.48 1.59-13.02 4.75-19.61 3.17-6.59 7.52-12.14 13.06-16.65 9.64-7.43 22.47-11.14 38.5-11.14 1.05.0 3.03.07 5.94.22 2.9.14 4.74.22 5.54.22l9.6.43c5.8.0 10.25-1.2 13.35-3.6.66-.51 1.59-2.04 2.78-4.59 1.18-2.55 2.44-4.15 3.76-4.8h1.58c2.24.0 3.73.62 4.45 1.85.53 1.17.79 2.33.79 3.5.0 4.88-6.07 9.06-18.2 12.56 6.46 4.15 11.74 8.68 15.83 13.59 4.09 4.92 6.93 10.84 8.51 17.75.79 3.21 1.19 6.77 1.19 10.7.0 9.25-2.84 17.77-8.51 25.56-9.9 12.81-25.43 19.22-46.61 19.22-10.76.0-21.97-2.4-33.65-7.21-3.49 2.41-5.24 4.81-5.24 7.21.0 1.53 1.17 2.88 3.51 4.04 2.34 1.17 5.1 1.75 8.26 1.75h1.19l44.14-.87c7.32.0 13.75 1.49 19.29 4.47 5.54 2.99 8.32 7.91 8.32 14.75v1.31c-.4 4.8-2.03 8.66-4.9 11.57-2.87 2.92-6.29 5.05-10.24 6.39-3.96 1.35-8.38 2.39-13.27 3.12.93-1.1 1.84-2.46 2.73-4.1.89-1.64 1.33-3.11 1.33-4.42.0-1.68-1.09-2.73-3.26-3.17h-1.59l-3.46.44-3.46.43c-.99.0-5.84.73-14.55 2.19-7.59 1.09-14.09 1.89-19.49 2.4h-1.19c-7.59.0-14.49-2.2-20.68-6.61-6.21-4.4-9.31-10.57-9.31-18.51v-.87c0-9.39 5.15-18.2 15.44-26.43zm49.78-5.35v-59.09c0-7.13-3.24-10.7-9.7-10.7-6.99.0-10.49 3.57-10.49 10.7v59.09c0 3.35.94 5.89 2.82 7.64s4.43 2.62 7.67 2.62c6.46.0 9.7-3.42 9.7-10.26z"/><path class="shp1" d="M1211.91 246.51c0-5.75 1.37-10.59 4.11-14.52s6.45-6.97 11.13-9.12c4.69-2.15 9.63-3.22 14.85-3.22 5.07.0 9.99 1 14.74 3s8.61 5.08 11.58 9.23c2.97 4.15 4.45 9.03 4.45 14.63.0 5.61-1.43 10.41-4.3 14.42-2.87 4-6.7 7.08-11.48 9.23-4.79 2.14-9.78 3.22-14.99 3.22-5.15.0-10.03-1.04-14.65-3.11-4.62-2.08-8.35-5.1-11.18-9.07-2.84-3.97-4.26-8.72-4.26-14.25v-.44zm130.53-92.94v103.75c0 5.98 2.31 8.96 6.93 8.96l.98-.44h.99c5.28.0 10.44-1.22 15.49-3.67 5.05-2.44 9.88-5.86 14.5-10.24 2.31-2.19 4.98-5.63 8.01-10.3 3.04-4.67 5.25-7.67 6.63-8.98.8-.88 1.88-1.32 3.27-1.32 1.32.0 2.11.15 2.37.44 1.12.58 1.69 1.79 1.69 3.61.0 2.56-1.75 5.97-5.25 10.24s-7.49 8.36-11.97 12.26c-4.49 3.91-7.42 6.27-8.81 7.07-9.24 5.4-19.36 8.1-30.38 8.1-8.97.0-17.5-1.93-25.58-5.79s-15.19-9.46-21.33-16.78c-6.13-7.32-10.48-15.79-13.06-25.41-1.91-8.09-2.87-14.79-2.87-20.11.0-9.04 1.68-17.67 5.05-25.91 3.36-8.23 8-15.39 13.9-21.48 5.91-6.08 12.65-10.82 20.24-14.2 7.59-3.39 15.6-5.09 24.05-5.09 6.86.0 13.88 1.17 21.07 3.5 3.04.94 6.65 2.69 10.84 5.24 4.19 2.55 8 5.48 11.43 8.79s5.61 6.39 6.53 9.23v1.42c0 2.18-.66 3.53-1.98 4.04l-.79.44-.89.43c-.79.0-1.88-.76-3.27-2.28l-6.33-6.74c-2.77-3.12-5.16-5.53-7.17-7.23-2.02-1.71-4.8-3.43-8.37-5.17-6.53-2.97-12.33-4.46-17.41-4.46-2.25.0-3.86.15-4.85.44-2.44.65-3.66 3.2-3.66 7.64z"/><path fill-rule="evenodd" class="shp1" d="M1411.31 205.83c0-12.31 2.82-23.66 8.46-34.05 5.64-10.38 13.15-18.56 22.51-24.53 9.37-5.98 19.33-8.97 29.89-8.97 2.7.0 5.2.15 7.47.44 2.28.29 5.06.87 8.36 1.75 6.34 1.75 12.4 4.77 18.21 9.07 5.54 4.08 10.39 9.05 14.55 14.92 4.15 5.87 7.35 12.33 9.59 19.4 2.25 7.07 3.37 14.39 3.37 21.97.0 12.17-2.77 23.41-8.31 33.72s-13.03 18.47-22.46 24.49c-9.44 6-19.7 9.01-30.78 9.01-8.38.0-16.21-1.75-23.5-5.24-7.29-3.5-13.76-8.35-19.4-14.54-5.64-6.2-10.04-13.41-13.21-21.64-3.17-8.24-4.75-16.84-4.75-25.8zm57.99 60.01.79.44c7.65.0 14.94-1.47 21.87-4.42 6.93-2.95 13.05-7.14 18.36-12.56 5.31-5.43 9.46-11.89 12.47-19.39 3-7.5 4.5-15.51 4.5-24.03.0-8.8-1.5-16.92-4.5-24.35-3.01-7.43-7.18-13.8-12.52-19.11a52.93 52.93.0 00-8.46-7.16 61.958 61.958.0 00-9.85-5.4 56.36 56.36.0 00-21.87-4.37h-.79v120.35z"/><path class="shp1" d="m1551.63 268.9.2-12.12.2-13.43v-75.58l-.2-13.22-.2-11.79h49.09l-.3 7.64-.2 7.1c6.33-5.53 12.34-9.83 18.01-12.88 5.67-3.06 11.84-4.59 18.51-4.59 3.23.0 6.13.44 8.7 1.31 2.58.87 5.05 2.15 7.43 3.82 4.35 3.06 8.17 7.9 11.47 14.53 3.3-2.84 6.72-5.54 10.25-8.08 3.52-2.55 6.81-4.74 9.84-6.56 6.2-3.64 12.47-5.46 18.8-5.46 4.69.0 9.37 1.24 14.06 3.72 4.68 2.47 8.24 5.84 10.68 10.1s4 8.77 4.65 13.54c.66 4.77.99 10.58.99 17.42v58.98l.2 12.77.2 12.78h-48.59l.2-12.78V167.33c0-7.42-1.6-11.14-4.8-11.14-2.68.0-7.38 3.43-14.1 10.27v76.89l.39 12.77c0 1.97.04 4.01.1 6.12.07 2.11.17 4.33.3 6.66h-48.98l.19-12.78.2-12.77v-79.19c0-1.74-.36-3.51-1.09-5.29-.72-1.78-1.84-2.68-3.36-2.68h-.4c-1.12.0-2.22.24-3.31.71-1.09.48-2.16 1.19-3.22 2.13-1.85 1.6-4.29 4.08-7.32 7.43v76.89l.2 12.01.3 13.54h-49.09z"/></g></g></g></svg>